<mxfile host="Electron" agent="Mozilla/5.0 (X11; Linux x86_64) AppleWebKit/537.36 (KHTML, like Gecko) draw.io/27.0.9 Chrome/134.0.6998.205 Electron/35.4.0 Safari/537.36" version="27.0.9">
  <diagram name="PÃ¡gina-1" id="URzQuW2Cx_vv3DirqJxQ">
    <mxGraphModel dx="1426" dy="2044" grid="0" gridSize="10" guides="1" tooltips="1" connect="1" arrows="1" fold="1" page="1" pageScale="1" pageWidth="827" pageHeight="1169" math="0" shadow="0">
      <root>
        <mxCell id="0" />
        <mxCell id="1" parent="0" />
        <mxCell id="hDRs5fKxfF-F5u80QOeF-5" style="edgeStyle=orthogonalEdgeStyle;rounded=0;orthogonalLoop=1;jettySize=auto;html=1;exitX=0.5;exitY=1;exitDx=0;exitDy=0;" parent="1" source="hDRs5fKxfF-F5u80QOeF-2" target="hDRs5fKxfF-F5u80QOeF-4" edge="1">
          <mxGeometry relative="1" as="geometry" />
        </mxCell>
        <mxCell id="hDRs5fKxfF-F5u80QOeF-55" value="&lt;b&gt;&lt;font style=&quot;font-size: 13px;&quot;&gt;i&lt;/font&gt;&lt;/b&gt;" style="edgeLabel;html=1;align=center;verticalAlign=middle;resizable=0;points=[];" parent="hDRs5fKxfF-F5u80QOeF-5" vertex="1" connectable="0">
          <mxGeometry x="-0.2306" y="-2" relative="1" as="geometry">
            <mxPoint as="offset" />
          </mxGeometry>
        </mxCell>
        <mxCell id="hDRs5fKxfF-F5u80QOeF-2" value="1" style="ellipse;whiteSpace=wrap;html=1;aspect=fixed;" parent="1" vertex="1">
          <mxGeometry x="92" y="-36" width="40" height="40" as="geometry" />
        </mxCell>
        <mxCell id="hDRs5fKxfF-F5u80QOeF-16" style="edgeStyle=orthogonalEdgeStyle;rounded=0;orthogonalLoop=1;jettySize=auto;html=1;exitX=0.5;exitY=1;exitDx=0;exitDy=0;entryX=0.5;entryY=0;entryDx=0;entryDy=0;" parent="1" source="hDRs5fKxfF-F5u80QOeF-4" target="hDRs5fKxfF-F5u80QOeF-8" edge="1">
          <mxGeometry relative="1" as="geometry" />
        </mxCell>
        <mxCell id="hDRs5fKxfF-F5u80QOeF-56" value="&lt;b&gt;&lt;font style=&quot;font-size: 13px;&quot;&gt;ii&lt;/font&gt;&lt;/b&gt;" style="edgeLabel;html=1;align=center;verticalAlign=middle;resizable=0;points=[];" parent="hDRs5fKxfF-F5u80QOeF-16" vertex="1" connectable="0">
          <mxGeometry x="-0.1943" relative="1" as="geometry">
            <mxPoint as="offset" />
          </mxGeometry>
        </mxCell>
        <mxCell id="hDRs5fKxfF-F5u80QOeF-4" value="2" style="ellipse;whiteSpace=wrap;html=1;aspect=fixed;" parent="1" vertex="1">
          <mxGeometry x="92" y="54" width="40" height="40" as="geometry" />
        </mxCell>
        <mxCell id="hDRs5fKxfF-F5u80QOeF-7" style="edgeStyle=orthogonalEdgeStyle;rounded=0;orthogonalLoop=1;jettySize=auto;html=1;exitX=0.5;exitY=1;exitDx=0;exitDy=0;" parent="1" source="hDRs5fKxfF-F5u80QOeF-8" target="hDRs5fKxfF-F5u80QOeF-9" edge="1">
          <mxGeometry relative="1" as="geometry" />
        </mxCell>
        <mxCell id="hDRs5fKxfF-F5u80QOeF-57" value="&lt;b&gt;&lt;font style=&quot;font-size: 13px;&quot;&gt;iii&lt;/font&gt;&lt;/b&gt;" style="edgeLabel;html=1;align=center;verticalAlign=middle;resizable=0;points=[];" parent="hDRs5fKxfF-F5u80QOeF-7" vertex="1" connectable="0">
          <mxGeometry x="-0.3848" y="2" relative="1" as="geometry">
            <mxPoint as="offset" />
          </mxGeometry>
        </mxCell>
        <mxCell id="hDRs5fKxfF-F5u80QOeF-8" value="3" style="ellipse;whiteSpace=wrap;html=1;aspect=fixed;" parent="1" vertex="1">
          <mxGeometry x="92" y="144" width="40" height="40" as="geometry" />
        </mxCell>
        <mxCell id="hDRs5fKxfF-F5u80QOeF-17" style="edgeStyle=orthogonalEdgeStyle;rounded=0;orthogonalLoop=1;jettySize=auto;html=1;exitX=0.5;exitY=1;exitDx=0;exitDy=0;" parent="1" source="hDRs5fKxfF-F5u80QOeF-9" target="hDRs5fKxfF-F5u80QOeF-11" edge="1">
          <mxGeometry relative="1" as="geometry" />
        </mxCell>
        <mxCell id="hDRs5fKxfF-F5u80QOeF-58" value="&lt;span style=&quot;color: rgba(0, 0, 0, 0); font-family: monospace; font-size: 0px; text-align: start; background-color: rgb(236, 236, 236);&quot;&gt;%3CmxGraphModel%3E%3Croot%3E%3CmxCell%20id%3D%220%22%2F%3E%3CmxCell%20id%3D%221%22%20parent%3D%220%22%2F%3E%3CmxCell%20id%3D%222%22%20value%3D%22%26lt%3Bb%26gt%3B%26lt%3Bfont%20style%3D%26quot%3Bfont-size%3A%2013px%3B%26quot%3B%26gt%3Biii%26lt%3B%2Ffont%26gt%3B%26lt%3B%2Fb%26gt%3B%22%20style%3D%22edgeLabel%3Bhtml%3D1%3Balign%3Dcenter%3BverticalAlign%3Dmiddle%3Bresizable%3D0%3Bpoints%3D%5B%5D%3B%22%20vertex%3D%221%22%20connectable%3D%220%22%20parent%3D%221%22%3E%3CmxGeometry%20x%3D%22112%22%20y%3D%22235.23809523809518%22%20as%3D%22geometry%22%2F%3E%3C%2FmxCell%3E%3C%2Froot%3E%3C%2FmxGraphModel%3E&lt;/span&gt;" style="edgeLabel;html=1;align=center;verticalAlign=middle;resizable=0;points=[];" parent="hDRs5fKxfF-F5u80QOeF-17" vertex="1" connectable="0">
          <mxGeometry x="-0.2514" y="2" relative="1" as="geometry">
            <mxPoint as="offset" />
          </mxGeometry>
        </mxCell>
        <mxCell id="hDRs5fKxfF-F5u80QOeF-59" value="&lt;span style=&quot;color: rgba(0, 0, 0, 0); font-family: monospace; font-size: 0px; text-align: start; background-color: rgb(236, 236, 236);&quot;&gt;%3CmxGraphModel%3E%3Croot%3E%3CmxCell%20id%3D%220%22%2F%3E%3CmxCell%20id%3D%221%22%20parent%3D%220%22%2F%3E%3CmxCell%20id%3D%222%22%20value%3D%22%26lt%3Bb%26gt%3B%26lt%3Bfont%20style%3D%26quot%3Bfont-size%3A%2013px%3B%26quot%3B%26gt%3Biii%26lt%3B%2Ffont%26gt%3B%26lt%3B%2Fb%26gt%3B%22%20style%3D%22edgeLabel%3Bhtml%3D1%3Balign%3Dcenter%3BverticalAlign%3Dmiddle%3Bresizable%3D0%3Bpoints%3D%5B%5D%3B%22%20vertex%3D%221%22%20connectable%3D%220%22%20parent%3D%221%22%3E%3CmxGeometry%20x%3D%22112%22%20y%3D%22235.23809523809518%22%20as%3D%22geometry%22%2F%3E%3C%2FmxCell%3E%3C%2Froot%3E%3C%2FmxGraphModel%3E&lt;/span&gt;" style="edgeLabel;html=1;align=center;verticalAlign=middle;resizable=0;points=[];" parent="hDRs5fKxfF-F5u80QOeF-17" vertex="1" connectable="0">
          <mxGeometry x="-0.1752" y="-2" relative="1" as="geometry">
            <mxPoint as="offset" />
          </mxGeometry>
        </mxCell>
        <mxCell id="hDRs5fKxfF-F5u80QOeF-60" value="&lt;b&gt;&lt;font style=&quot;font-size: 13px;&quot;&gt;iv&lt;/font&gt;&lt;/b&gt;" style="edgeLabel;html=1;align=center;verticalAlign=middle;resizable=0;points=[];" parent="hDRs5fKxfF-F5u80QOeF-17" vertex="1" connectable="0">
          <mxGeometry x="-0.2324" y="1" relative="1" as="geometry">
            <mxPoint as="offset" />
          </mxGeometry>
        </mxCell>
        <mxCell id="hDRs5fKxfF-F5u80QOeF-9" value="4" style="ellipse;whiteSpace=wrap;html=1;aspect=fixed;" parent="1" vertex="1">
          <mxGeometry x="92" y="234" width="40" height="40" as="geometry" />
        </mxCell>
        <mxCell id="hDRs5fKxfF-F5u80QOeF-10" style="edgeStyle=orthogonalEdgeStyle;rounded=0;orthogonalLoop=1;jettySize=auto;html=1;exitX=0.5;exitY=1;exitDx=0;exitDy=0;" parent="1" source="hDRs5fKxfF-F5u80QOeF-11" target="hDRs5fKxfF-F5u80QOeF-12" edge="1">
          <mxGeometry relative="1" as="geometry" />
        </mxCell>
        <mxCell id="hDRs5fKxfF-F5u80QOeF-61" value="&lt;b&gt;&lt;font style=&quot;font-size: 13px;&quot;&gt;v&lt;/font&gt;&lt;/b&gt;" style="edgeLabel;html=1;align=center;verticalAlign=middle;resizable=0;points=[];" parent="hDRs5fKxfF-F5u80QOeF-10" vertex="1" connectable="0">
          <mxGeometry x="-0.2895" y="1" relative="1" as="geometry">
            <mxPoint as="offset" />
          </mxGeometry>
        </mxCell>
        <mxCell id="hDRs5fKxfF-F5u80QOeF-11" value="5" style="ellipse;whiteSpace=wrap;html=1;aspect=fixed;" parent="1" vertex="1">
          <mxGeometry x="92" y="324" width="40" height="40" as="geometry" />
        </mxCell>
        <mxCell id="hDRs5fKxfF-F5u80QOeF-18" style="edgeStyle=orthogonalEdgeStyle;rounded=0;orthogonalLoop=1;jettySize=auto;html=1;exitX=0.5;exitY=1;exitDx=0;exitDy=0;entryX=0.5;entryY=0;entryDx=0;entryDy=0;" parent="1" source="hDRs5fKxfF-F5u80QOeF-12" target="hDRs5fKxfF-F5u80QOeF-14" edge="1">
          <mxGeometry relative="1" as="geometry" />
        </mxCell>
        <mxCell id="hDRs5fKxfF-F5u80QOeF-62" value="&lt;b&gt;&lt;font style=&quot;font-size: 13px;&quot;&gt;vi&lt;/font&gt;&lt;/b&gt;" style="edgeLabel;html=1;align=center;verticalAlign=middle;resizable=0;points=[];" parent="hDRs5fKxfF-F5u80QOeF-18" vertex="1" connectable="0">
          <mxGeometry x="-0.3276" y="2" relative="1" as="geometry">
            <mxPoint as="offset" />
          </mxGeometry>
        </mxCell>
        <mxCell id="hDRs5fKxfF-F5u80QOeF-12" value="6" style="ellipse;whiteSpace=wrap;html=1;aspect=fixed;" parent="1" vertex="1">
          <mxGeometry x="92" y="414" width="40" height="40" as="geometry" />
        </mxCell>
        <mxCell id="hDRs5fKxfF-F5u80QOeF-13" style="edgeStyle=orthogonalEdgeStyle;rounded=0;orthogonalLoop=1;jettySize=auto;html=1;exitX=0.5;exitY=1;exitDx=0;exitDy=0;" parent="1" source="hDRs5fKxfF-F5u80QOeF-14" edge="1">
          <mxGeometry relative="1" as="geometry">
            <mxPoint x="112" y="594" as="targetPoint" />
          </mxGeometry>
        </mxCell>
        <mxCell id="hDRs5fKxfF-F5u80QOeF-63" value="&lt;b&gt;&lt;font style=&quot;font-size: 13px;&quot;&gt;vii&lt;/font&gt;&lt;/b&gt;" style="edgeLabel;html=1;align=center;verticalAlign=middle;resizable=0;points=[];" parent="hDRs5fKxfF-F5u80QOeF-13" vertex="1" connectable="0">
          <mxGeometry x="-0.2895" relative="1" as="geometry">
            <mxPoint as="offset" />
          </mxGeometry>
        </mxCell>
        <mxCell id="hDRs5fKxfF-F5u80QOeF-14" value="7" style="ellipse;whiteSpace=wrap;html=1;aspect=fixed;" parent="1" vertex="1">
          <mxGeometry x="92" y="504" width="40" height="40" as="geometry" />
        </mxCell>
        <mxCell id="hDRs5fKxfF-F5u80QOeF-42" value="8" style="ellipse;whiteSpace=wrap;html=1;aspect=fixed;" parent="1" vertex="1">
          <mxGeometry x="92" y="594" width="40" height="40" as="geometry" />
        </mxCell>
        <mxCell id="hDRs5fKxfF-F5u80QOeF-43" style="edgeStyle=orthogonalEdgeStyle;rounded=0;orthogonalLoop=1;jettySize=auto;html=1;exitX=0;exitY=0.5;exitDx=0;exitDy=0;" parent="1" source="hDRs5fKxfF-F5u80QOeF-42" target="hDRs5fKxfF-F5u80QOeF-44" edge="1">
          <mxGeometry relative="1" as="geometry">
            <mxPoint x="22" y="634" as="sourcePoint" />
          </mxGeometry>
        </mxCell>
        <mxCell id="hDRs5fKxfF-F5u80QOeF-76" value="&lt;b&gt;&lt;font style=&quot;font-size: 13px;&quot;&gt;viii&lt;/font&gt;&lt;/b&gt;" style="edgeLabel;html=1;align=center;verticalAlign=middle;resizable=0;points=[];" parent="hDRs5fKxfF-F5u80QOeF-43" vertex="1" connectable="0">
          <mxGeometry x="0.5735" y="2" relative="1" as="geometry">
            <mxPoint as="offset" />
          </mxGeometry>
        </mxCell>
        <mxCell id="hDRs5fKxfF-F5u80QOeF-48" style="edgeStyle=orthogonalEdgeStyle;rounded=0;orthogonalLoop=1;jettySize=auto;html=1;exitX=0.5;exitY=1;exitDx=0;exitDy=0;entryX=0.5;entryY=0;entryDx=0;entryDy=0;" parent="1" source="hDRs5fKxfF-F5u80QOeF-44" target="hDRs5fKxfF-F5u80QOeF-47" edge="1">
          <mxGeometry relative="1" as="geometry" />
        </mxCell>
        <mxCell id="hDRs5fKxfF-F5u80QOeF-77" value="&lt;b&gt;&lt;font style=&quot;font-size: 13px;&quot;&gt;ix&lt;/font&gt;&lt;/b&gt;" style="edgeLabel;html=1;align=center;verticalAlign=middle;resizable=0;points=[];" parent="hDRs5fKxfF-F5u80QOeF-48" vertex="1" connectable="0">
          <mxGeometry x="-0.3179" relative="1" as="geometry">
            <mxPoint as="offset" />
          </mxGeometry>
        </mxCell>
        <mxCell id="hDRs5fKxfF-F5u80QOeF-44" value="9" style="ellipse;whiteSpace=wrap;html=1;aspect=fixed;" parent="1" vertex="1">
          <mxGeometry x="2" y="684" width="40" height="40" as="geometry" />
        </mxCell>
        <mxCell id="hDRs5fKxfF-F5u80QOeF-45" style="edgeStyle=orthogonalEdgeStyle;rounded=0;orthogonalLoop=1;jettySize=auto;html=1;exitX=1;exitY=0.5;exitDx=0;exitDy=0;" parent="1" source="hDRs5fKxfF-F5u80QOeF-42" target="hDRs5fKxfF-F5u80QOeF-46" edge="1">
          <mxGeometry relative="1" as="geometry">
            <mxPoint x="202" y="634" as="sourcePoint" />
            <Array as="points">
              <mxPoint x="203" y="614" />
              <mxPoint x="203" y="659" />
              <mxPoint x="202" y="659" />
            </Array>
          </mxGeometry>
        </mxCell>
        <mxCell id="hDRs5fKxfF-F5u80QOeF-78" value="&lt;b&gt;&lt;font style=&quot;font-size: 13px;&quot;&gt;x&lt;/font&gt;&lt;/b&gt;" style="edgeLabel;html=1;align=center;verticalAlign=middle;resizable=0;points=[];" parent="hDRs5fKxfF-F5u80QOeF-45" vertex="1" connectable="0">
          <mxGeometry x="0.5721" relative="1" as="geometry">
            <mxPoint as="offset" />
          </mxGeometry>
        </mxCell>
        <mxCell id="hDRs5fKxfF-F5u80QOeF-49" style="edgeStyle=orthogonalEdgeStyle;rounded=0;orthogonalLoop=1;jettySize=auto;html=1;exitX=0.5;exitY=1;exitDx=0;exitDy=0;" parent="1" source="hDRs5fKxfF-F5u80QOeF-46" edge="1">
          <mxGeometry relative="1" as="geometry">
            <mxPoint x="112" y="764" as="targetPoint" />
          </mxGeometry>
        </mxCell>
        <mxCell id="hDRs5fKxfF-F5u80QOeF-79" value="&lt;b&gt;&lt;font style=&quot;font-size: 13px;&quot;&gt;xi&lt;/font&gt;&lt;/b&gt;" style="edgeLabel;html=1;align=center;verticalAlign=middle;resizable=0;points=[];" parent="hDRs5fKxfF-F5u80QOeF-49" vertex="1" connectable="0">
          <mxGeometry x="-0.836" relative="1" as="geometry">
            <mxPoint as="offset" />
          </mxGeometry>
        </mxCell>
        <mxCell id="hDRs5fKxfF-F5u80QOeF-46" value="10" style="ellipse;whiteSpace=wrap;html=1;aspect=fixed;" parent="1" vertex="1">
          <mxGeometry x="182" y="684" width="40" height="40" as="geometry" />
        </mxCell>
        <mxCell id="hDRs5fKxfF-F5u80QOeF-47" value="11" style="ellipse;whiteSpace=wrap;html=1;aspect=fixed;" parent="1" vertex="1">
          <mxGeometry x="92" y="764" width="40" height="40" as="geometry" />
        </mxCell>
      </root>
    </mxGraphModel>
  </diagram>
</mxfile>
